<svg width="18" height="19" viewBox="0 0 18 19" fill="none" xmlns="http://www.w3.org/2000/svg">
<path fill-rule="evenodd" clip-rule="evenodd" d="M16.3959 10.2871C15.8369 7.96111 15.8735 5.72118 15.8065 3.36189C15.7935 2.90113 16.1472 2.51807 16.5961 2.50419C17.0453 2.49031 17.4202 2.85393 17.4335 3.31469C17.4969 5.55185 17.4457 7.68075 17.9762 9.89016C18.0836 10.337 17.8164 10.7895 17.3803 10.8977C16.9444 11.0087 16.5031 10.734 16.3959 10.2871Z" fill="#272727"/>
<path fill-rule="evenodd" clip-rule="evenodd" d="M11.6465 14.7946C7.85389 11.2474 4.28048 6.68422 1.78284 2.07666C1.56503 1.67419 1.7069 1.16622 2.09966 0.944174C2.49243 0.722122 2.98826 0.866468 3.20607 1.26894C5.62126 5.72384 9.07721 10.1371 12.7445 13.565C13.0759 13.8759 13.099 14.4033 12.796 14.7419C12.493 15.0805 11.9779 15.1055 11.6465 14.7946Z" fill="#272727"/>
<path fill-rule="evenodd" clip-rule="evenodd" d="M10.6857 18.6697C7.21698 19.2554 3.64168 18.2562 0.48762 16.8434C0.0761388 16.6574 -0.11157 16.1661 0.068267 15.747C0.248375 15.3251 0.728761 15.1336 1.14024 15.3168C4.01275 16.6047 7.26147 17.5595 10.4207 17.0266C10.8639 16.9517 11.283 17.2597 11.3559 17.7122C11.4292 18.1646 11.1286 18.5948 10.6857 18.6697Z" fill="#272727"/>
</svg>
