<svg width="28" height="29" viewBox="0 0 28 29" fill="none" xmlns="http://www.w3.org/2000/svg">
<path d="M19.8334 8.03604H8.16721C8.16721 8.03604 0 14.4976 0 22.0383C0 26.3451 3.51216 28.4999 5.83307 28.4999H22.1669C24.4976 28.4999 28 26.3449 28 22.0383C28 14.4976 19.8328 8.03604 19.8328 8.03604H19.8334ZM15.1656 23.0053V24.7299H12.8349L12.8347 23.0111C11.1169 22.7162 10.0379 21.7377 9.96132 20.3168H11.9824C12.0813 21.0626 12.8955 21.5431 14.0737 21.5431C15.1592 21.5431 15.9286 21.0568 15.9286 20.3641C15.9286 19.7746 15.4306 19.4384 14.2046 19.1851L12.9051 18.9286C11.0851 18.5778 10.1911 17.7023 10.1911 16.2962C10.1911 14.8901 11.2065 13.876 12.822 13.5429V11.8064H15.1527V13.5456C16.7299 13.8698 17.7805 14.8632 17.8314 16.1985L15.8807 16.1987C15.7818 15.4706 15.0473 14.9843 14.0385 14.9843C13.0296 14.9843 12.3016 15.4324 12.3016 16.134C12.3016 16.703 12.7773 17.0184 13.949 17.26L15.1527 17.4958C17.1609 17.8849 18.0261 18.6749 18.0261 20.1165C18.0263 21.6581 16.9535 22.6899 15.1656 23.0054L15.1656 23.0053Z" fill="#097AF2"/>
<path d="M19.8339 1.57137H16.6093C15.9431 0.889309 14.9953 0.499878 14.0007 0.499878C13.006 0.499878 12.0582 0.88933 11.392 1.57137H8.16741C7.78168 1.57281 7.42178 1.75005 7.2053 2.04472C6.98882 2.33938 6.94384 2.71382 7.08504 3.0453L8.16741 7.1609H19.8335L20.9159 3.0453C21.0571 2.71383 21.0121 2.3394 20.7956 2.04472C20.5791 1.75004 20.2193 1.57281 19.8335 1.57137H19.8339Z" fill="#097AF2"/>
</svg>
