<svg width="38" height="31" viewBox="0 0 38 31" fill="none" xmlns="http://www.w3.org/2000/svg">
<path d="M20.5828 26.6567C21.5851 27.0612 22.4618 27.6906 23.2136 28.4999H36.7015C37.1609 28.4999 37.5786 28.0954 37.5786 27.5557V24.4991C37.5786 20.768 35.4071 17.6213 32.3588 16.3627C30.9391 17.8461 29.1017 18.7452 27.0555 18.7452C25.0092 18.7452 23.1721 17.8462 21.7521 16.3627C20.6245 16.8123 19.6225 17.5765 18.7871 18.4754C19.9147 20.2286 20.541 22.2966 20.541 24.499L20.5412 26.6567L20.5828 26.6567Z" fill="#097AF2"/>
<path d="M21.4347 9.75492C21.4347 13.7108 24.4017 16.9475 28.0876 16.9475C31.7287 16.9475 34.7405 13.7109 34.7405 9.75492C34.7405 9.39526 34.7405 8.99077 34.6957 8.63111C35.7746 5.48451 35.235 -0.179598 33.2123 0.674421C31.4143 1.43857 21.7493 -1.03386 22.2888 3.05691C19.9963 3.1469 21.2098 7.59704 21.4346 8.586V9.75492H21.4347ZM23.4578 9.97975C23.6827 9.97975 23.9075 9.80008 23.8623 9.5301C23.7275 8.45115 23.5475 5.79903 24.4468 6.02379C25.6155 6.33861 26.8741 6.65311 28.0431 6.65311C29.1669 6.65311 30.4704 6.29345 31.6394 6.02379C32.5835 5.79897 32.3587 8.45107 32.2239 9.5301C32.179 9.75492 32.4035 9.97975 32.6284 9.97975L33.0329 9.93491C32.9429 12.9019 30.7404 15.2843 28.0431 15.2843C25.3458 15.2843 23.1434 12.9019 23.0534 9.93491L23.4578 9.97975Z" fill="#097AF2"/>
<path d="M0.838754 28.4999H14.3267C15.7464 27.0165 17.6674 26.0726 19.7969 26.0726C20.1727 26.0726 20.5484 26.1175 20.9661 26.1626V24.4994C20.9661 21.2629 19.3376 18.4307 16.9156 16.9476C16.1221 16.9924 15.3706 17.0376 14.6188 17.0376H14.4936C13.2407 18.1165 11.821 18.7007 10.4846 18.7007C9.14821 18.7007 7.7285 18.1163 6.47568 17.0376H6.35043C5.59893 17.0376 4.84714 16.9927 4.05366 16.9476C1.63168 18.431 0.00311266 21.2632 0.00311266 24.4994V27.5561C-0.0382496 28.0502 0.337461 28.4999 0.838754 28.4999Z" fill="#097AF2"/>
<path d="M1.33492 14.8343C2.86322 15.0591 4.84122 15.2839 6.864 15.1939C7.98782 16.2278 9.29128 16.8571 10.5051 16.8571C11.7189 16.8571 13.0675 16.2278 14.1462 15.1939C16.1689 15.2388 18.1469 15.0591 19.6752 14.8343C20.2597 14.7443 20.3494 13.9801 19.8549 13.7105C18.6862 13.0811 17.5624 11.8225 17.5624 9.12522C17.5624 0.853948 12.5727 -0.179962 10.5047 0.808995C8.43737 -0.134528 3.4925 0.899301 3.4925 9.17018C3.4925 11.8675 2.36869 13.1261 1.2 13.7554C0.660667 14.0251 0.750348 14.7444 1.33484 14.8341L1.33492 14.8343ZM6.00982 8.58587C8.03261 8.45104 10.8199 7.41719 12.4831 5.48406C12.9776 6.56301 13.8765 7.50685 15.0003 7.95654C15.0452 8.45103 15.0452 8.94549 15.0452 9.48485C15.0452 12.6766 12.3031 15.2836 10.505 15.2836C8.70711 15.2839 6.00979 12.6766 6.00979 9.52996V8.58579L6.00982 8.58587Z" fill="#097AF2"/>
<path d="M18.7873 15.3627C14.9649 15.3627 11.8926 18.4345 11.8926 22.2574C11.8926 26.08 14.9648 29.1519 18.7873 29.1519C22.6099 29.1519 25.6821 26.08 25.6821 22.2571C25.6821 18.4346 22.6098 15.3627 18.7873 15.3627Z" fill="#097AF2" stroke="white" stroke-width="2"/>
</svg>
