<svg width="25" height="24" viewBox="0 0 25 24" fill="none" xmlns="http://www.w3.org/2000/svg">
<path d="M23.502 12.2532C23.502 11.5055 23.4402 10.7537 23.3082 10.0181H12.7227V14.254H18.7845C18.533 15.6201 17.7247 16.8286 16.5412 17.5966V20.3451H20.1577C22.2814 18.4292 23.502 15.5999 23.502 12.2532Z" fill="#097AF2"/>
<path d="M12.7222 23.0006C15.749 23.0006 18.3016 22.0265 20.1614 20.345L16.5449 17.5965C15.5387 18.2675 14.2397 18.6474 12.7263 18.6474C9.79851 18.6474 7.31604 16.7114 6.42532 14.1084H2.69336V16.9418C4.59851 20.6563 8.47892 23.0006 12.7222 23.0006Z" fill="#34A853"/>
<path d="M6.42165 14.1085C5.95155 12.7423 5.95155 11.263 6.42165 9.89684V7.06348H2.69381C1.10206 10.1717 1.10206 13.8336 2.69381 16.9419L6.42165 14.1085Z" fill="#FBBC04"/>
<path d="M12.7222 5.35373C14.3222 5.32948 15.8686 5.9196 17.0274 7.00282L20.2315 3.86228C18.2026 1.99492 15.5098 0.968284 12.7222 1.00062C8.47892 1.00062 4.59851 3.34491 2.69336 7.06345L6.42119 9.89682C7.30779 7.2898 9.79439 5.35373 12.7222 5.35373Z" fill="#EA4335"/>
</svg>
