<svg width="23" height="23" viewBox="0 0 23 23" fill="none" xmlns="http://www.w3.org/2000/svg">
<path fill-rule="evenodd" clip-rule="evenodd" d="M21.2273 9.93647L12.5826 1.2788C12.0857 0.781122 11.4113 0.501465 10.708 0.501465H1.32459C0.59304 0.501465 0 1.0945 0 1.82605V11.1907C0 11.895 0.280445 12.5703 0.779365 13.0674L9.46994 21.7262C10.5064 22.7588 12.1836 22.7558 13.2163 21.7194L21.2292 13.6783C22.2601 12.6437 22.2592 10.97 21.2273 9.93647ZM4.009 6.5157C5.07189 6.5157 5.93354 5.65406 5.93354 4.59117C5.93354 3.52828 5.07189 2.66663 4.009 2.66663C2.94611 2.66663 2.08447 3.52828 2.08447 4.59117C2.08447 5.65406 2.94611 6.5157 4.009 6.5157Z" fill="#097AF2"/>
</svg>
