<svg width="28" height="29" viewBox="0 0 28 29" fill="none" xmlns="http://www.w3.org/2000/svg">
<path d="M27.2106 10.2873L25.37 8.8464V3.30845C25.37 3.0367 25.1589 2.81624 24.8982 2.81624H20.3897C20.1292 2.81624 19.9179 3.0367 19.9179 3.30845V4.57859L15.2617 0.935544C14.897 0.65258 14.4546 0.499878 14.0001 0.499878C13.5456 0.499878 13.1032 0.65258 12.7384 0.935544L0.789455 10.2876C0.35362 10.6289 0.0722576 11.1426 0.0121446 11.7076C-0.0482043 12.2726 0.11814 12.8383 0.471464 13.2713C0.824787 13.704 1.33372 13.9652 1.87794 13.9931V27.0198C1.87925 27.412 2.02914 27.7876 2.2949 28.0649C2.56066 28.3424 2.92103 28.4985 3.29693 28.4999H10.0453C10.4215 28.4992 14.0115 28.4996 14.0115 28.4996H24.7028C25.079 28.4989 25.4395 28.3428 25.7055 28.0653C25.9715 27.7879 26.1212 27.4117 26.1218 27.0193V13.9932C26.6134 13.9707 27.0789 13.7551 27.4243 13.3892C27.8277 12.9666 28.036 12.3824 27.9949 11.7876C27.9539 11.1926 27.6679 10.6454 27.2106 10.2873Z" fill="#097AF2"/>
<path d="M21.1256 13.4564C21.1256 13.2944 21.0718 13.1594 20.9638 13.0513L19.1812 11.2689C19.0732 11.1609 18.9383 11.1068 18.7762 11.1068C18.6141 11.1068 18.4792 11.1609 18.3712 11.2689L6.79392 22.8458C6.68578 22.9538 6.63184 23.0889 6.63184 23.251C6.63184 23.4131 6.68578 23.548 6.79392 23.656L8.57636 25.4386C8.6845 25.5466 8.81942 25.6005 8.98152 25.6005C9.14347 25.6005 9.27852 25.5467 9.38654 25.4386L20.9638 13.8613C21.0718 13.7532 21.1256 13.6182 21.1256 13.4562V13.4564ZM17.1016 16.0941L16.1384 15.1308L18.776 12.493L19.7393 13.4564L17.1016 16.0941Z" fill="white"/>
<path d="M8.69335 13.1682L8.96332 12.286L9.84555 12.016L8.96332 11.7459L8.69335 10.8637L8.42325 11.7459L7.54102 12.016L8.42325 12.286L8.69335 13.1682Z" fill="white"/>
<path d="M11.0341 14.2845L11.5743 16.049L12.1146 14.2845L13.879 13.7443L12.1146 13.2041L11.5743 11.4395L11.0341 13.2041L9.26953 13.7443L11.0341 14.2845Z" fill="white"/>
<path d="M20.4866 17.5073L20.2165 16.6251L19.9467 17.5073L19.0645 17.7773L19.9467 18.0474L20.2165 18.9295L20.4866 18.0474L21.369 17.7773L20.4866 17.5073Z" fill="white"/>
<path d="M14.4549 13.1682L14.725 12.286L15.6071 12.016L14.725 11.7459L14.4549 10.8637L14.1848 11.7459L13.3027 12.016L14.1848 12.286L14.4549 13.1682Z" fill="white"/>
</svg>
