<svg width="30" height="20" viewBox="0 0 30 20" fill="none" xmlns="http://www.w3.org/2000/svg">
<path fill-rule="evenodd" clip-rule="evenodd" d="M23.3667 6.66667C27.0335 6.66667 30 9.66655 30 13.3333C30 17.0001 27.0001 20 23.3333 20C19.6665 20 16.6667 17.0001 16.6667 13.3333C16.6667 5.96667 22.6333 0 30 0C30 0 25.6334 1.63339 23.3667 6.66667ZM13.3333 13.3333C13.3333 17.0001 10.3335 20 6.66667 20C2.99988 20 0 17.0001 0 13.3333C0 5.96667 5.96667 0 13.3333 0C13.3333 0 8.96673 1.63339 6.7 6.66667C10.3668 6.66667 13.3333 9.66679 13.3333 13.3333Z" fill="#097AF2"/>
</svg>
