<svg width="31" height="29" viewBox="0 0 31 29" fill="none" xmlns="http://www.w3.org/2000/svg">
<path d="M22.9608 20.6342C22.9608 24.9782 19.4392 28.4999 15.0952 28.4999C10.7511 28.4999 7.22949 24.9783 7.22949 20.6342C7.22949 16.2901 10.7511 12.7686 15.0952 12.7686C19.4392 12.7686 22.9608 16.2901 22.9608 20.6342Z" fill="#097AF2"/>
<path d="M29.3739 3.38508L24.8 0.744024C24.5 0.571037 24.2275 0.502395 23.9856 0.500381L23.9864 0.500129L6.21329 0.499878C5.96964 0.500632 5.69608 0.56852 5.39286 0.743515L0.818284 3.38508C0.818284 3.38508 -0.540702 4.16978 0.244006 5.52832L6.7908 16.8685C7.03494 16.3312 8.33553 14.5024 9.64803 13.5353C10.9605 12.5682 12.9804 11.748 13.5044 11.6555L11.1494 7.5765H19.0428L16.6878 11.6558C17.2118 11.7481 18.7431 12.0025 20.574 13.5353C22.4049 15.0681 23.1573 16.3313 23.4017 16.8688L29.9478 5.52857C30.7325 4.16985 29.3739 3.38508 29.3739 3.38508Z" fill="#097AF2"/>
</svg>
