<svg width="220" height="36" viewBox="0 0 220 36" fill="none" xmlns="http://www.w3.org/2000/svg">
<path d="M16.2441 3.21945C17.0021 1.82957 18.9979 1.82957 19.7559 3.21945L23.1529 9.44837C23.4406 9.97582 23.9501 10.346 24.5406 10.4566L31.5144 11.7626C33.0705 12.054 33.6872 13.952 32.5996 15.1024L27.7253 20.258C27.3126 20.6946 27.1179 21.2936 27.1952 21.8894L28.1082 28.9254C28.312 30.4954 26.6974 31.6685 25.2672 30.9896L18.8577 27.947C18.3149 27.6894 17.6851 27.6894 17.1423 27.947L10.7328 30.9896C9.30262 31.6685 7.68805 30.4954 7.89177 28.9254L8.80475 21.8894C8.88206 21.2936 8.68744 20.6946 8.27469 20.258L3.40039 15.1024C2.31277 13.952 2.92948 12.054 4.48557 11.7626L11.4594 10.4566C12.0499 10.346 12.5594 9.97582 12.8471 9.44837L16.2441 3.21945Z" fill="#FEE045"/>
<path d="M62.2441 3.21945C63.0021 1.82957 64.9979 1.82957 65.7559 3.21945L69.1529 9.44837C69.4406 9.97582 69.9501 10.346 70.5406 10.4566L77.5144 11.7626C79.0705 12.054 79.6872 13.952 78.5996 15.1024L73.7253 20.258C73.3126 20.6946 73.1179 21.2936 73.1952 21.8894L74.1082 28.9254C74.312 30.4954 72.6974 31.6685 71.2672 30.9896L64.8577 27.947C64.3149 27.6894 63.6851 27.6894 63.1423 27.947L56.7328 30.9896C55.3026 31.6685 53.688 30.4954 53.8918 28.9254L54.8048 21.8894C54.8821 21.2936 54.6874 20.6946 54.2747 20.258L49.4004 15.1024C48.3128 13.952 48.9295 12.054 50.4856 11.7626L57.4594 10.4566C58.0499 10.346 58.5594 9.97582 58.8471 9.44837L62.2441 3.21945Z" fill="#FEE045"/>
<path d="M108.244 3.21945C109.002 1.82957 110.998 1.82957 111.756 3.21945L115.153 9.44837C115.441 9.97582 115.95 10.346 116.541 10.4566L123.514 11.7626C125.071 12.054 125.687 13.952 124.6 15.1024L119.725 20.258C119.313 20.6946 119.118 21.2936 119.195 21.8894L120.108 28.9254C120.312 30.4954 118.697 31.6685 117.267 30.9896L110.858 27.947C110.315 27.6894 109.685 27.6894 109.142 27.947L102.733 30.9896C101.303 31.6685 99.688 30.4954 99.8918 28.9254L100.805 21.8894C100.882 21.2936 100.687 20.6946 100.275 20.258L95.4004 15.1024C94.3128 13.952 94.9295 12.054 96.4856 11.7626L103.459 10.4566C104.05 10.346 104.559 9.97582 104.847 9.44837L108.244 3.21945Z" fill="#FEE045"/>
<path d="M154.244 3.21945C155.002 1.82957 156.998 1.82957 157.756 3.21945L161.153 9.44837C161.441 9.97582 161.95 10.346 162.541 10.4566L169.514 11.7626C171.071 12.054 171.687 13.952 170.6 15.1024L165.725 20.258C165.313 20.6946 165.118 21.2936 165.195 21.8894L166.108 28.9254C166.312 30.4954 164.697 31.6685 163.267 30.9896L156.858 27.947C156.315 27.6894 155.685 27.6894 155.142 27.947L148.733 30.9896C147.303 31.6685 145.688 30.4954 145.892 28.9254L146.805 21.8894C146.882 21.2936 146.687 20.6946 146.275 20.258L141.4 15.1024C140.313 13.952 140.929 12.054 142.486 11.7626L149.459 10.4566C150.05 10.346 150.559 9.97582 150.847 9.44837L154.244 3.21945Z" fill="#FEE045"/>
<path d="M200.244 3.21945C201.002 1.82957 202.998 1.82957 203.756 3.21945L207.153 9.44837C207.441 9.97582 207.95 10.346 208.541 10.4566L215.514 11.7626C217.071 12.054 217.687 13.952 216.6 15.1024L211.725 20.258C211.313 20.6946 211.118 21.2936 211.195 21.8894L212.108 28.9254C212.312 30.4954 210.697 31.6685 209.267 30.9896L202.858 27.947C202.315 27.6894 201.685 27.6894 201.142 27.947L194.733 30.9896C193.303 31.6685 191.688 30.4954 191.892 28.9254L192.805 21.8894C192.882 21.2936 192.687 20.6946 192.275 20.258L187.4 15.1024C186.313 13.952 186.929 12.054 188.486 11.7626L195.459 10.4566C196.05 10.346 196.559 9.97582 196.847 9.44837L200.244 3.21945Z" fill="#FEE045"/>
<path d="M210.747 21.2418C210.747 22.7671 211.633 28.1812 211.703 29.3765C211.703 29.3765 211.9 30.0093 211.352 30.4593C210.803 30.9093 210.438 30.8812 210.438 30.8812V11.257L210.972 11.3331C210.972 11.3331 215.163 12.025 216.091 12.3572C217.019 12.6893 216.878 13.7134 216.878 13.7134C216.695 15.8387 210.747 19.7166 210.747 21.2418Z" fill="#D9D9D9" stroke="#D9D9D9"/>
</svg>
